<mxfile host="app.diagrams.net" modified="2021-09-23T04:57:26.950Z" agent="5.0 (Windows NT 10.0; Win64; x64) AppleWebKit/537.36 (KHTML, like Gecko) Chrome/93.0.4577.82 Safari/537.36 Edg/93.0.961.52" etag="WwoRLk1VwQEbZXdTwDbn" version="15.3.0" type="github">
  <diagram id="C5RBs43oDa-KdzZeNtuy" name="Page-1">
    <mxGraphModel dx="1422" dy="762" grid="1" gridSize="10" guides="1" tooltips="1" connect="1" arrows="1" fold="1" page="1" pageScale="1" pageWidth="827" pageHeight="1169" math="0" shadow="0">
      <root>
        <mxCell id="WIyWlLk6GJQsqaUBKTNV-0" />
        <mxCell id="WIyWlLk6GJQsqaUBKTNV-1" parent="WIyWlLk6GJQsqaUBKTNV-0" />
        <mxCell id="hCm99WgUAfopnlmtq_tb-23" style="edgeStyle=orthogonalEdgeStyle;rounded=0;orthogonalLoop=1;jettySize=auto;html=1;exitX=0.5;exitY=1;exitDx=0;exitDy=0;entryX=0.5;entryY=0;entryDx=0;entryDy=0;" edge="1" parent="WIyWlLk6GJQsqaUBKTNV-1" source="hCm99WgUAfopnlmtq_tb-16" target="WIyWlLk6GJQsqaUBKTNV-3">
          <mxGeometry relative="1" as="geometry" />
        </mxCell>
        <mxCell id="hCm99WgUAfopnlmtq_tb-16" value="INPUT" style="rhombus;whiteSpace=wrap;html=1;" vertex="1" parent="WIyWlLk6GJQsqaUBKTNV-1">
          <mxGeometry x="35" y="120" width="120" height="80" as="geometry" />
        </mxCell>
        <mxCell id="hCm99WgUAfopnlmtq_tb-25" style="edgeStyle=orthogonalEdgeStyle;rounded=0;orthogonalLoop=1;jettySize=auto;html=1;exitX=0.5;exitY=1;exitDx=0;exitDy=0;entryX=0.5;entryY=0;entryDx=0;entryDy=0;" edge="1" parent="WIyWlLk6GJQsqaUBKTNV-1" source="hCm99WgUAfopnlmtq_tb-17" target="hCm99WgUAfopnlmtq_tb-1">
          <mxGeometry relative="1" as="geometry" />
        </mxCell>
        <mxCell id="hCm99WgUAfopnlmtq_tb-17" value="MEMORY" style="rhombus;whiteSpace=wrap;html=1;" vertex="1" parent="WIyWlLk6GJQsqaUBKTNV-1">
          <mxGeometry x="355" y="120" width="120" height="80" as="geometry" />
        </mxCell>
        <mxCell id="hCm99WgUAfopnlmtq_tb-26" style="edgeStyle=orthogonalEdgeStyle;rounded=0;orthogonalLoop=1;jettySize=auto;html=1;exitX=0.5;exitY=1;exitDx=0;exitDy=0;entryX=0.5;entryY=0;entryDx=0;entryDy=0;" edge="1" parent="WIyWlLk6GJQsqaUBKTNV-1" source="hCm99WgUAfopnlmtq_tb-18" target="hCm99WgUAfopnlmtq_tb-2">
          <mxGeometry relative="1" as="geometry" />
        </mxCell>
        <mxCell id="hCm99WgUAfopnlmtq_tb-18" value="CONTROL" style="rhombus;whiteSpace=wrap;html=1;" vertex="1" parent="WIyWlLk6GJQsqaUBKTNV-1">
          <mxGeometry x="515" y="120" width="120" height="80" as="geometry" />
        </mxCell>
        <mxCell id="hCm99WgUAfopnlmtq_tb-27" style="edgeStyle=orthogonalEdgeStyle;rounded=0;orthogonalLoop=1;jettySize=auto;html=1;exitX=0.5;exitY=1;exitDx=0;exitDy=0;entryX=0.5;entryY=0;entryDx=0;entryDy=0;" edge="1" parent="WIyWlLk6GJQsqaUBKTNV-1" source="hCm99WgUAfopnlmtq_tb-19" target="hCm99WgUAfopnlmtq_tb-3">
          <mxGeometry relative="1" as="geometry" />
        </mxCell>
        <mxCell id="hCm99WgUAfopnlmtq_tb-19" value="DATAPATH" style="rhombus;whiteSpace=wrap;html=1;" vertex="1" parent="WIyWlLk6GJQsqaUBKTNV-1">
          <mxGeometry x="672" y="120" width="120" height="80" as="geometry" />
        </mxCell>
        <mxCell id="hCm99WgUAfopnlmtq_tb-24" style="edgeStyle=orthogonalEdgeStyle;rounded=0;orthogonalLoop=1;jettySize=auto;html=1;exitX=0.5;exitY=1;exitDx=0;exitDy=0;entryX=0.5;entryY=0;entryDx=0;entryDy=0;" edge="1" parent="WIyWlLk6GJQsqaUBKTNV-1" source="hCm99WgUAfopnlmtq_tb-20" target="hCm99WgUAfopnlmtq_tb-0">
          <mxGeometry relative="1" as="geometry" />
        </mxCell>
        <mxCell id="hCm99WgUAfopnlmtq_tb-20" value="OUTPUT" style="rhombus;whiteSpace=wrap;html=1;" vertex="1" parent="WIyWlLk6GJQsqaUBKTNV-1">
          <mxGeometry x="195" y="120" width="120" height="80" as="geometry" />
        </mxCell>
        <mxCell id="WIyWlLk6GJQsqaUBKTNV-3" value="Writes data to memory." style="rounded=1;whiteSpace=wrap;html=1;fontSize=12;glass=0;strokeWidth=1;shadow=0;" parent="WIyWlLk6GJQsqaUBKTNV-1" vertex="1">
          <mxGeometry x="35" y="250" width="120" height="70" as="geometry" />
        </mxCell>
        <mxCell id="hCm99WgUAfopnlmtq_tb-0" value="Reads data from memory." style="rounded=1;whiteSpace=wrap;html=1;fontSize=12;glass=0;strokeWidth=1;shadow=0;" vertex="1" parent="WIyWlLk6GJQsqaUBKTNV-1">
          <mxGeometry x="195" y="250" width="120" height="70" as="geometry" />
        </mxCell>
        <mxCell id="hCm99WgUAfopnlmtq_tb-1" value="Stores instructions and data." style="rounded=1;whiteSpace=wrap;html=1;fontSize=12;glass=0;strokeWidth=1;shadow=0;" vertex="1" parent="WIyWlLk6GJQsqaUBKTNV-1">
          <mxGeometry x="355" y="250" width="120" height="70" as="geometry" />
        </mxCell>
        <mxCell id="hCm99WgUAfopnlmtq_tb-2" value="Sends signals that determine the operation of the other components." style="rounded=1;whiteSpace=wrap;html=1;fontSize=12;glass=0;strokeWidth=1;shadow=0;" vertex="1" parent="WIyWlLk6GJQsqaUBKTNV-1">
          <mxGeometry x="515" y="250" width="120" height="70" as="geometry" />
        </mxCell>
        <mxCell id="hCm99WgUAfopnlmtq_tb-3" value="Performs computations." style="rounded=1;whiteSpace=wrap;html=1;fontSize=12;glass=0;strokeWidth=1;shadow=0;" vertex="1" parent="WIyWlLk6GJQsqaUBKTNV-1">
          <mxGeometry x="672" y="250" width="120" height="70" as="geometry" />
        </mxCell>
        <mxCell id="hCm99WgUAfopnlmtq_tb-33" value="" style="group" vertex="1" connectable="0" parent="WIyWlLk6GJQsqaUBKTNV-1">
          <mxGeometry x="35" y="370" width="757" height="90" as="geometry" />
        </mxCell>
        <mxCell id="hCm99WgUAfopnlmtq_tb-28" value="keyboard, mouse, microphone, touchscreen, network, etc." style="rounded=1;whiteSpace=wrap;html=1;" vertex="1" parent="hCm99WgUAfopnlmtq_tb-33">
          <mxGeometry width="120" height="90" as="geometry" />
        </mxCell>
        <mxCell id="hCm99WgUAfopnlmtq_tb-29" value="display, speaker, printer, network" style="rounded=1;whiteSpace=wrap;html=1;" vertex="1" parent="hCm99WgUAfopnlmtq_tb-33">
          <mxGeometry x="160" width="120" height="90" as="geometry" />
        </mxCell>
        <mxCell id="hCm99WgUAfopnlmtq_tb-30" value="DRAM, flash, disk storage" style="rounded=1;whiteSpace=wrap;html=1;" vertex="1" parent="hCm99WgUAfopnlmtq_tb-33">
          <mxGeometry x="320" width="120" height="90" as="geometry" />
        </mxCell>
        <mxCell id="hCm99WgUAfopnlmtq_tb-31" value="Central processor unit (CPU)" style="rounded=1;whiteSpace=wrap;html=1;" vertex="1" parent="hCm99WgUAfopnlmtq_tb-33">
          <mxGeometry x="480" width="120" height="90" as="geometry" />
        </mxCell>
        <mxCell id="hCm99WgUAfopnlmtq_tb-32" value="instruction and data memories, the register file, the ALU, and adders" style="rounded=1;whiteSpace=wrap;html=1;" vertex="1" parent="hCm99WgUAfopnlmtq_tb-33">
          <mxGeometry x="637" width="120" height="90" as="geometry" />
        </mxCell>
        <mxCell id="hCm99WgUAfopnlmtq_tb-34" value="&lt;font style=&quot;font-size: 14px&quot;&gt;&lt;b&gt;Standard organization of a computer&lt;/b&gt;&lt;/font&gt;" style="rounded=0;whiteSpace=wrap;html=1;" vertex="1" parent="WIyWlLk6GJQsqaUBKTNV-1">
          <mxGeometry x="258" y="20" width="312" height="60" as="geometry" />
        </mxCell>
      </root>
    </mxGraphModel>
  </diagram>
</mxfile>
